<svg xmlns="http://www.w3.org/2000/svg" width="320" height="320"><rect x="0" y="0" width="100%" height="100%" fill="rgb(108,131,76)"></rect><circle cx="0" cy="0" r="53.333333333333336" fill="#222" opacity="0.08066666666666666"></circle><circle cx="320" cy="0" r="53.333333333333336" fill="#222" opacity="0.08066666666666666"></circle><circle cx="0" cy="320" r="53.333333333333336" fill="#222" opacity="0.08066666666666666"></circle><circle cx="320" cy="320" r="53.333333333333336" fill="#222" opacity="0.08066666666666666"></circle><circle cx="53.333333333333336" cy="0" r="53.333333333333336" fill="#222" opacity="0.046"></circle><circle cx="53.333333333333336" cy="320" r="53.333333333333336" fill="#222" opacity="0.046"></circle><circle cx="106.66666666666667" cy="0" r="53.333333333333336" fill="#222" opacity="0.06333333333333334"></circle><circle cx="106.66666666666667" cy="320" r="53.333333333333336" fill="#222" opacity="0.06333333333333334"></circle><circle cx="160" cy="0" r="53.333333333333336" fill="#222" opacity="0.15"></circle><circle cx="160" cy="320" r="53.333333333333336" fill="#222" opacity="0.15"></circle><circle cx="213.33333333333334" cy="0" r="53.333333333333336" fill="#ddd" opacity="0.03733333333333333"></circle><circle cx="213.33333333333334" cy="320" r="53.333333333333336" fill="#ddd" opacity="0.03733333333333333"></circle><circle cx="266.6666666666667" cy="0" r="53.333333333333336" fill="#ddd" opacity="0.02"></circle><circle cx="266.6666666666667" cy="320" r="53.333333333333336" fill="#ddd" opacity="0.02"></circle><circle cx="0" cy="53.333333333333336" r="53.333333333333336" fill="#ddd" opacity="0.12400000000000001"></circle><circle cx="320" cy="53.333333333333336" r="53.333333333333336" fill="#ddd" opacity="0.12400000000000001"></circle><circle cx="53.333333333333336" cy="53.333333333333336" r="53.333333333333336" fill="#222" opacity="0.13266666666666665"></circle><circle cx="106.66666666666667" cy="53.333333333333336" r="53.333333333333336" fill="#ddd" opacity="0.07200000000000001"></circle><circle cx="160" cy="53.333333333333336" r="53.333333333333336" fill="#222" opacity="0.028666666666666667"></circle><circle cx="213.33333333333334" cy="53.333333333333336" r="53.333333333333336" fill="#ddd" opacity="0.12400000000000001"></circle><circle cx="266.6666666666667" cy="53.333333333333336" r="53.333333333333336" fill="#222" opacity="0.028666666666666667"></circle><circle cx="0" cy="106.66666666666667" r="53.333333333333336" fill="#222" opacity="0.15"></circle><circle cx="320" cy="106.66666666666667" r="53.333333333333336" fill="#222" opacity="0.15"></circle><circle cx="53.333333333333336" cy="106.66666666666667" r="53.333333333333336" fill="#ddd" opacity="0.05466666666666667"></circle><circle cx="106.66666666666667" cy="106.66666666666667" r="53.333333333333336" fill="#ddd" opacity="0.12400000000000001"></circle><circle cx="160" cy="106.66666666666667" r="53.333333333333336" fill="#222" opacity="0.046"></circle><circle cx="213.33333333333334" cy="106.66666666666667" r="53.333333333333336" fill="#ddd" opacity="0.12400000000000001"></circle><circle cx="266.6666666666667" cy="106.66666666666667" r="53.333333333333336" fill="#222" opacity="0.15"></circle><circle cx="0" cy="160" r="53.333333333333336" fill="#ddd" opacity="0.14133333333333334"></circle><circle cx="320" cy="160" r="53.333333333333336" fill="#ddd" opacity="0.14133333333333334"></circle><circle cx="53.333333333333336" cy="160" r="53.333333333333336" fill="#ddd" opacity="0.07200000000000001"></circle><circle cx="106.66666666666667" cy="160" r="53.333333333333336" fill="#222" opacity="0.028666666666666667"></circle><circle cx="160" cy="160" r="53.333333333333336" fill="#ddd" opacity="0.08933333333333333"></circle><circle cx="213.33333333333334" cy="160" r="53.333333333333336" fill="#222" opacity="0.098"></circle><circle cx="266.6666666666667" cy="160" r="53.333333333333336" fill="#ddd" opacity="0.12400000000000001"></circle><circle cx="0" cy="213.33333333333334" r="53.333333333333336" fill="#ddd" opacity="0.02"></circle><circle cx="320" cy="213.33333333333334" r="53.333333333333336" fill="#ddd" opacity="0.02"></circle><circle cx="53.333333333333336" cy="213.33333333333334" r="53.333333333333336" fill="#222" opacity="0.15"></circle><circle cx="106.66666666666667" cy="213.33333333333334" r="53.333333333333336" fill="#ddd" opacity="0.07200000000000001"></circle><circle cx="160" cy="213.33333333333334" r="53.333333333333336" fill="#ddd" opacity="0.08933333333333333"></circle><circle cx="213.33333333333334" cy="213.33333333333334" r="53.333333333333336" fill="#ddd" opacity="0.14133333333333334"></circle><circle cx="266.6666666666667" cy="213.33333333333334" r="53.333333333333336" fill="#222" opacity="0.098"></circle><circle cx="0" cy="266.6666666666667" r="53.333333333333336" fill="#222" opacity="0.028666666666666667"></circle><circle cx="320" cy="266.6666666666667" r="53.333333333333336" fill="#222" opacity="0.028666666666666667"></circle><circle cx="53.333333333333336" cy="266.6666666666667" r="53.333333333333336" fill="#ddd" opacity="0.07200000000000001"></circle><circle cx="106.66666666666667" cy="266.6666666666667" r="53.333333333333336" fill="#222" opacity="0.046"></circle><circle cx="160" cy="266.6666666666667" r="53.333333333333336" fill="#ddd" opacity="0.14133333333333334"></circle><circle cx="213.33333333333334" cy="266.6666666666667" r="53.333333333333336" fill="#222" opacity="0.13266666666666665"></circle><circle cx="266.6666666666667" cy="266.6666666666667" r="53.333333333333336" fill="#ddd" opacity="0.12400000000000001"></circle></svg>